<svg id="Layer_1" data-name="Layer 1" xmlns="http://www.w3.org/2000/svg" viewBox="0 0 279 246.14"><defs><style>.cls-1{fill:#62b5e5;}</style></defs><path class="cls-1" d="M76.38,110.68H97.13c8.06,0,10.7,8.06,6,11.69a6.09,6.09,0,0,1,3.53,5.46c0,3.36-2.71,6.86-8.3,6.86h-22Zm7.24,9.64H95.38c4.19,0,4.19-5.08-.07-5.08H83.58Zm0,9.81h13c4.28,0,4.15-5.22,0-5.22h-13Z"/><path class="cls-1" d="M108.79,110.68h7.1v24h-7.1Z"/><path class="cls-1" d="M118.91,131.16l15.47-15.47H118.91v-5h27v3.53l-15.47,15.47h15.47v5h-27Z"/><path class="cls-1" d="M158.87,110.68,174,128.41V110.78l7.1-.1v24H170.7l-14.95-17.46v17.46h-7.1v-24Z"/><path class="cls-1" d="M185.21,120.73c0-5.94,3.81-10,9.81-10h18v5H196c-2.47,0-3.67,1.27-3.67,3.12V120h19.9v4.87h-19.9v1.07a3.5,3.5,0,0,0,3.67,3.77h17v5H195.06c-6,0-9.85-4.08-9.85-10Z"/><path class="cls-1" d="M216.53,117.37c.07-3.16,2.3-6.28,6.76-6.66l0,0h22.67v4.59H226.3c-3.8,0-3.94,4.64,0,4.64h13c5.56,0,8.33,3.77,8.27,7.51-.07,3.43-2.47,6.82-7.31,7.24l0,0h-22v-5h19.17c4.15,0,4.29-5.25,0-5.25H224.18C219,124.43,216.46,120.83,216.53,117.37Z"/><path class="cls-1" d="M58.42,108.46H35.66a4.27,4.27,0,0,0-4.27,4.26v19.73a5.25,5.25,0,0,0,5.24,5.24H57.07a4.27,4.27,0,0,0,4.26-4.27v-.73A5.19,5.19,0,0,0,60,129.16l-4.62-5-2.77-3,8-7.2A3.18,3.18,0,0,0,58.42,108.46Zm-21,6H50.87L37.39,127.65Zm16.72,17.23H41.84l6.43-6.29Z"/></svg>